<svg width="30" height="30" viewBox="0 0 30 30" fill="none" xmlns="http://www.w3.org/2000/svg">
<path d="M4.335 3H25.68C26.415 3 27 3.585 27 4.32V25.68C27 26.4 26.415 27 25.68 27H19.56V17.7H22.68L23.145 14.085H19.56V11.775C19.56 10.725 19.86 10.005 21.36 10.005H23.28V6.765C22.95 6.72 21.81 6.63 20.49 6.63C17.715 6.63 15.825 8.31 15.825 11.415V14.085H12.69V17.7H15.825V27H4.335C3.98352 27 3.64621 26.8614 3.39628 26.6143C3.14634 26.3672 3.00395 26.0315 3 25.68V4.32C3 3.585 3.6 3 4.335 3Z" fill="black"/>
</svg>
