<svg width="25" height="25" viewBox="0 0 25 25" fill="none" xmlns="http://www.w3.org/2000/svg">
<path d="M15.875 12.5C15.875 10.625 14.375 9.125 12.5 9.125C10.625 9.125 9.125 10.625 9.125 12.5C9.125 14.375 10.625 15.875 12.5 15.875C14.375 15.875 15.875 14.375 15.875 12.5ZM17.625 12.5C17.625 15.375 15.375 17.625 12.5 17.625C9.625 17.625 7.375 15.375 7.375 12.5C7.375 9.625 9.625 7.375 12.5 7.375C15.375 7.375 17.625 9.625 17.625 12.5ZM19 7.125C19 7.875 18.5 8.375 17.75 8.375C17 8.375 16.5 7.875 16.5 7.125C16.5 6.375 17 5.875 17.75 5.875C18.5 5.875 19 6.5 19 7.125ZM12.5 4.25C11 4.25 7.875 4.125 6.625 4.625C5.75 5 5 5.75 4.75 6.625C4.25 7.875 4.375 11 4.375 12.5C4.375 14 4.25 17.125 4.75 18.375C5 19.25 5.75 20 6.625 20.25C7.875 20.75 11.125 20.625 12.5 20.625C13.875 20.625 17.125 20.75 18.375 20.25C19.25 19.875 19.875 19.25 20.25 18.375C20.75 17 20.625 13.875 20.625 12.5C20.625 11.125 20.75 7.875 20.25 6.625C20 5.75 19.25 5 18.375 4.75C17.125 4.125 14 4.25 12.5 4.25ZM22.5 12.5V16.625C22.5 18.125 22 19.625 20.875 20.875C19.75 22 18.25 22.5 16.625 22.5H8.375C6.875 22.5 5.375 22 4.125 20.875C3.125 19.75 2.5 18.25 2.5 16.625V12.5V8.375C2.5 6.75 3.125 5.25 4.125 4.125C5.375 3.125 6.875 2.5 8.375 2.5H16.625C18.125 2.5 19.625 3 20.875 4.125C21.875 5.25 22.5 6.75 22.5 8.375V12.5Z" fill="#2E2E2E"/>
</svg>
