<svg width="277" height="307" viewBox="0 0 277 307" fill="none" xmlns="http://www.w3.org/2000/svg">
<rect x="0.5" y="0.5" width="276" height="306" stroke="black"/>
<path d="M120.956 100L71 126.645V214L120.956 184.32L169.41 214L225 197.136V100L180.678 126.645L120.956 100Z" fill="#BFFFF7" stroke="#DBFDF9"/>
<path d="M90.5837 133.891C110.076 119.73 99.9663 149.759 117.451 149.759C131.574 149.759 136.768 166.581 148.829 172.288C163.47 179.215 159.608 161.542 165.106 155.44C168.074 152.145 172.904 153.285 177.069 153.285C185.106 153.285 186.535 152.27 192.954 147.996" stroke="#FF0B0B" stroke-linecap="round" stroke-linejoin="round" stroke-dasharray="5 5"/>
<path d="M169.809 150.435V138.807H168.385V150.435H169.809ZM170.521 145.783V139.582C172.658 138.807 175.506 140.357 178.355 139.582V145.783C176.219 146.768 172.658 145.008 170.521 145.783Z" fill="#FF0B0B"/>
</svg>
