<svg width="277" height="307" viewBox="0 0 277 307" fill="none" xmlns="http://www.w3.org/2000/svg">
<rect x="0.5" y="0.5" width="276" height="306" stroke="black"/>
<path d="M85.0516 92.3281L52.1318 196.722H226.887L147.389 112.533L115.52 156.793L85.0516 92.3281Z" fill="#B6B0B0"/>
<path d="M72.8018 132.05L85.0158 92L97.8562 120.561L95.0376 127.455V135.99L90.0267 132.05L87.2081 139.929L83.1367 127.455L78.1258 135.99V127.783L72.8018 132.05Z" fill="#EDE9E9" stroke="#EDE9E9"/>
<path d="M147.339 112.354L132.932 132.379L128.548 138.616L124.79 143.869L141.388 137.96L147.339 145.51L150.784 134.348L155.795 141.899L158.3 134.348L166.756 141.899L163.624 134.348L170.201 136.646L147.339 112.354Z" fill="#EDE9E9"/>
<path d="M50.4009 198.315C51.4227 198.613 52.0317 198.995 53.1703 198.966C54.2275 198.97 52.9844 199.262 54.118 198.969L56.6848 198.308C57.6664 198.055 59.38 197.928 59.6951 196.678C59.9705 195.585 56.9614 196.897 57.0476 196.547C57.1611 196.086 58.3593 193.821 56.8285 194.715C56.5519 194.876 53.9849 196.895 53.8848 196.741C53.5629 196.248 53.3638 195.503 53.1235 194.953C52.2945 193.054 52.7373 196.298 51.8972 196.564C51.5535 196.673 50.6128 195.921 50.3021 195.762C49.8998 195.557 50.9869 197.089 51.2377 197.341C51.8178 197.922 50.3884 197.752 50.18 197.765C49.143 197.832 49.7183 198.115 50.4009 198.315Z" fill="#3FA62E" stroke="#3FA62E" stroke-linecap="round" stroke-linejoin="round"/>
<path d="M77.4201 196.552C78.8443 197.337 80.4091 197.91 81.8856 198.571C84.0725 198.243 86.3132 197.154 88.3791 196.488C89.0372 196.276 89.7919 196.381 90.4479 196.134C92.2223 195.464 90.0516 195.491 89.3623 195.565C89.067 195.596 86.6322 196.225 86.4638 195.897C86.3329 195.643 86.5128 195.058 86.4843 194.759C86.4043 193.921 82.8016 196.723 82.5206 196.08C82.3145 195.609 82.7953 193.627 82.1519 194.341C81.9361 194.58 81.2656 196.447 80.9639 196.166C80.5801 195.808 80.3575 195.174 80.1343 194.706C79.8254 194.058 79.7646 193.777 80.0011 194.62C80.1015 194.978 80.4643 195.569 80.3698 195.94C80.2283 196.497 78.6736 195.78 78.3419 195.715C78.1033 195.668 76.5598 195.455 76.5598 195.865C76.5598 196.156 77.2312 196.448 77.4201 196.552Z" fill="#3FA62E" stroke="#3FA62E" stroke-linecap="round" stroke-linejoin="round"/>
<path d="M96.2112 197.866C97.6354 198.651 99.2001 199.223 100.677 199.884C102.864 199.557 105.104 198.468 107.17 197.801C107.828 197.589 108.583 197.695 109.239 197.447C111.013 196.778 108.843 196.805 108.153 196.878C107.858 196.91 105.423 197.539 105.255 197.211C105.124 196.956 105.304 196.371 105.275 196.073C105.195 195.234 101.593 198.036 101.312 197.393C101.106 196.922 101.586 194.94 100.943 195.654C100.727 195.894 100.057 197.761 99.7549 197.479C99.3712 197.122 99.1485 196.487 98.9253 196.019C98.6164 195.372 98.5557 195.091 98.7921 195.933C98.8925 196.291 99.2554 196.882 99.1608 197.254C99.0193 197.81 97.4646 197.094 97.1329 197.028C96.8943 196.982 95.3508 196.769 95.3508 197.179C95.3508 197.47 96.0222 197.762 96.2112 197.866Z" fill="#3FA62E" stroke="#3FA62E" stroke-linecap="round" stroke-linejoin="round"/>
<ellipse rx="56.3731" ry="10.9689" transform="matrix(0.999877 0.0156793 -0.0142702 0.999898 173.796 198.726)" fill="#60F4EB"/>
<path d="M193.652 113.818C193.652 113.284 193.984 112.75 193.984 112.038C193.984 108.121 188.004 104.917 180.695 104.917C175.38 104.917 171.061 106.519 168.736 108.834C168.071 108.656 166.742 108.478 165.746 108.478C161.095 108.478 157.44 110.436 157.44 112.928C157.44 113.284 157.44 113.64 157.773 113.818C151.793 114.352 147.474 116.845 147.474 120.049C147.474 123.432 152.79 126.28 159.102 126.28H192.323C198.635 126.28 203.95 123.432 203.95 120.049C203.95 116.845 199.631 114.174 193.652 113.818Z" fill="#F2F2F2"/>
</svg>
