<svg width="446" height="1148" viewBox="0 0 446 1148" fill="none" xmlns="http://www.w3.org/2000/svg">
<path d="M35.0999 36.843L38.2589 20.188C40.3919 18.9823 41.8499 16.6831 41.8499 14.0194C41.8499 12.1604 41.1387 10.3774 39.8729 9.06285C38.607 7.74828 36.8901 7.00977 35.0999 7.00977C33.3097 7.00977 31.5928 7.74828 30.3269 9.06285C29.0611 10.3774 28.3499 12.1604 28.3499 14.0194C28.3499 16.6831 29.8079 18.9823 31.9409 20.188L35.0999 36.843ZM35.0999 9.81364C37.3409 9.81364 39.1499 11.6922 39.1499 14.0194C39.1499 16.3467 37.3409 18.2252 35.0999 18.2252C32.8589 18.2252 31.0499 16.3467 31.0499 14.0194C31.0499 11.6922 32.8589 9.81364 35.0999 9.81364ZM39.7439 23.2722L48.5999 19.5431V44.7779L35.4239 50.4698L18.8999 44.7779L5.3999 50.3856V25.1508L18.8999 19.5431L30.4289 23.4965L35.0999 43.9648L39.7439 23.2722Z" fill="#27AE60"/>
<path d="M403.4 277.477H398.2V313.928H424.2V308.32H403.4V277.477ZM439.54 272.991L436.16 269.346C435.12 268.224 433.3 267.944 432 269.066L429.4 271.869H406V305.516H429.4V288.693L439.8 277.477C440.84 276.075 440.58 274.113 439.54 272.991ZM424.72 289.814L418.22 292.338L420.56 285.328L432 272.991L436.16 277.477L424.72 289.814V289.814Z" fill="#27AE60"/>
<path d="M295.2 603.414L305.6 614.63V648.276H274.4V603.414H295.2ZM295.2 614.63H303L295.2 606.218V614.63Z" fill="#27AE60"/>
<g clip-path="url(#clip0)">
<path d="M423 938.405L420.374 946.312V946.284C419.022 945.751 417.696 945.835 416.396 946.508C415.096 947.181 414.186 948.247 413.692 949.705C413.198 951.163 413.276 952.593 413.874 953.995C414.498 955.397 415.486 956.35 416.864 956.883V956.911L414.238 964.818L375.082 949.733L377.656 941.91C379.008 942.443 380.334 942.359 381.634 941.686C382.934 941.041 383.818 939.975 384.312 938.517C384.806 937.059 384.728 935.629 384.104 934.227C383.82 933.561 383.413 932.963 382.908 932.472C382.402 931.98 381.81 931.604 381.166 931.367L383.818 923.32L423 938.405ZM410.078 954.359L413.64 943.817C413.952 942.947 413.9 941.994 413.536 941.153C413.172 940.312 412.522 939.667 411.716 939.33L392.164 931.676C390.5 931.031 388.602 932.012 388.004 933.751L384.442 944.293C383.818 946.116 384.702 948.135 386.366 948.779L405.918 956.462C406.282 956.602 406.646 956.686 407.036 956.686C408.388 956.686 409.636 955.761 410.078 954.359V954.359ZM391.722 932.994L411.248 940.648C411.742 940.844 412.132 941.237 412.366 941.742C412.574 942.246 412.6 942.807 412.418 943.34L408.856 953.882C408.518 954.948 407.348 955.537 406.36 955.144L386.834 947.462C386.348 947.272 385.952 946.882 385.732 946.377C385.513 945.872 385.488 945.294 385.664 944.77L389.226 934.227C389.486 933.414 390.24 932.853 391.046 932.853C391.28 932.853 391.488 932.91 391.722 932.994V932.994ZM409.454 967.033C410.364 967.79 411.404 968.182 412.574 968.182H412.6V976.594H371V968.294C372.43 968.294 373.678 967.734 374.666 966.64C375.68 965.575 376.2 964.229 376.2 962.687C376.2 961.145 375.68 959.827 374.666 958.733C373.652 957.64 372.43 957.079 371 957.079V948.555H373.73L373.002 950.798L380.464 953.658C379.138 954.107 378.15 955.397 378.15 956.967V968.182C378.15 970.117 379.606 971.687 381.4 971.687H402.2C403.994 971.687 405.45 970.117 405.45 968.182V963.275L407.608 964.117C407.92 965.322 408.544 966.304 409.454 967.033ZM379.45 968.182V956.967C379.45 955.817 380.334 954.864 381.4 954.864H383.558L404.15 962.799V968.182C404.15 969.332 403.266 970.285 402.2 970.285H381.4C380.334 970.285 379.45 969.332 379.45 968.182Z" fill="#27AE60"/>
</g>
<path d="M235 1094.78V1052.72H229.8V1094.78H235ZM237.6 1077.96V1055.53C245.4 1052.72 255.8 1058.33 266.2 1055.53V1077.96C258.4 1081.52 245.4 1075.15 237.6 1077.96Z" fill="#27AE60"/>
<path d="M33 28.5684C51.1241 69.2792 67.6588 113.588 100.31 143.035C125.267 165.542 152.554 181.567 181.918 195.835C255.712 231.694 345.868 226.892 410.004 283.901C429.066 300.845 439.498 312.355 442.613 339.207C445.255 361.982 447.031 389.435 440.52 411.471C432.844 437.45 414.854 463.322 398.146 482.964C374.101 511.233 336.99 526.175 317.584 559.275C294.678 598.346 296.405 657.448 305.029 700.334C312.923 739.591 328.029 771.615 353.157 800.155C371.375 820.846 391.029 843.324 399.89 871.07C406.398 891.447 411.677 912.682 408.958 934.47C404.019 974.038 367.672 998.51 340.951 1020.22C318.703 1038.3 265.271 1063.17 265.271 1100.39" stroke="#4DB97B" stroke-width="2" stroke-linejoin="round" stroke-dasharray="10 10"/>
<defs>
<clipPath id="clip0">
<rect width="52" height="56.0774" fill="white" transform="translate(371 920.516)"/>
</clipPath>
</defs>
</svg>
