<svg width="173" height="60" viewBox="0 0 173 60" fill="none" xmlns="http://www.w3.org/2000/svg">
<path d="M1.00053 55.9707C3.02749 54.9143 4.7801 52.9136 6.54054 50.9862C9.74729 47.4755 12.884 43.8177 16.1753 40.5213C18.3784 38.3149 20.5862 36.0859 22.8637 34.0947C24.0636 33.0456 25.8307 31.2109 27.2794 31.2121C28.24 31.2128 29.3904 32.1947 30.2441 32.7606C32.9754 34.5712 35.6396 36.6657 38.3388 38.6012C43.9321 42.6119 49.9723 45.591 55.301 50.4479" stroke="white" stroke-linecap="round" stroke-linejoin="round"/>
<path d="M38.3513 36.1831C41.4066 31.0702 45.1973 26.9326 48.7565 22.815C52.3218 18.6902 55.9658 14.8018 59.8232 11.4349C61.2738 10.1687 61.8146 10.4775 63.4871 11.3583C73.4253 16.5921 83.1176 23.1677 92.7761 29.5876C98.8392 33.6178 105.19 37.3214 110.908 42.5808C112.566 44.1061 114.072 45.6353 115.894 46.6394C118.102 47.8554 120.352 48.6915 122.629 49.4869C123.372 49.7467 124.227 49.8732 124.865 50.562" stroke="white" stroke-linecap="round" stroke-linejoin="round"/>
<path d="M82.4823 21.8554C86.0571 19.0047 89.7451 16.5995 93.1136 13.0618C95.894 10.1417 98.7781 6.42423 102.083 5.25599C102.798 5.0036 103.126 5.10604 103.89 5.43911C106.824 6.71878 109.68 9.08335 112.453 11.0178C125.156 19.8771 111.701 11.0289 124.5 19.5C134.63 26.2049 135.569 25.3999 149.5 37.5C151.173 38.9533 171.075 50.9758 172.5 53" stroke="white" stroke-linecap="round" stroke-linejoin="round"/>
<path d="M1.00096 55.5031C4.48866 57.7718 7.53824 58.6771 11.2196 58.7115C16.7533 58.7633 22.2877 58.7207 27.8216 58.7253C31.3312 58.7282 34.7193 57.6792 38.2055 57.4133C48.967 56.5928 59.8038 57.3805 70.572 57.3894C79.5668 57.3969 88.5615 57.4043 97.5563 57.4118C104.539 57.4176 111.799 58.7306 118.668 55.6008C124.183 53.0878 129.9 53.7816 135.506 53.7862C147.784 53.7964 160.082 53.3495 172.368 53.3597" stroke="white" stroke-linecap="round" stroke-linejoin="round"/>
<ellipse rx="5.64633" ry="5.51361" transform="matrix(1 0.000789694 -0.00119954 0.999999 81.3603 6.48193)" fill="white"/>
</svg>
