<svg width="105" height="100" viewBox="0 0 105 100" fill="none" xmlns="http://www.w3.org/2000/svg">
<path d="M42.1569 22.3004C40.6345 28.7004 45.0445 39.6004 52.4995 39.6004C59.902 39.6004 64.312 28.7004 62.7895 22.3004C61.6344 17.4004 57.1194 14.1504 52.4995 14.1504C47.827 14.1504 43.3645 17.4004 42.1569 22.3004ZM20.4745 26.8004C19.162 32.2004 22.942 41.4504 29.242 41.4504C35.542 41.4504 39.322 32.2004 38.0095 26.8004C37.012 22.6504 33.1795 19.8504 29.242 19.8504C25.3045 19.8504 21.472 22.6504 20.4745 26.8004ZM66.9895 26.8004C65.677 32.2004 69.4569 41.4504 75.7044 41.4504C82.0044 41.4504 85.7844 32.2004 84.4719 26.8004C83.4744 22.6504 79.6419 19.8504 75.7044 19.8504C71.8195 19.8504 67.9869 22.6504 66.9895 26.8004ZM63.8919 83.9504L70.4544 62.4504C74.5494 50.0004 66.7269 42.3504 52.4995 42.3504C38.2195 42.3504 30.397 50.0004 34.4395 62.4504L41.0545 83.9504C42.262 87.5504 47.2495 90.0004 52.4995 90.0004C57.6445 90.0004 62.6844 87.5504 63.8919 83.9504ZM31.867 45.8004C29.2945 49.1504 26.827 54.9504 29.662 63.7504L35.542 82.7004C33.757 83.7004 31.4995 84.2504 29.242 84.2504C24.7795 84.2504 20.5795 82.2004 19.5295 79.1004L13.912 60.8504C10.4995 50.3004 17.1145 43.8504 29.242 43.8504C30.6595 43.8504 32.077 43.9504 33.3895 44.1504C32.8645 44.6504 32.3395 45.2504 31.867 45.8004ZM75.7044 43.8504C87.8319 43.8504 94.4995 50.3004 91.0344 60.8504L85.4169 79.1004C84.367 82.2004 80.1669 84.2504 75.7044 84.2504C73.4469 84.2504 71.1894 83.7004 69.4044 82.7004L75.2319 63.8504C78.1194 54.9504 75.6519 49.1504 73.0269 45.8004C72.6069 45.2504 72.082 44.6504 71.5569 44.1504C72.8694 43.9504 74.2344 43.8504 75.7044 43.8504Z" fill="#08546A"/>
</svg>
