<svg width="122" height="135" viewBox="0 0 122 135" fill="none" xmlns="http://www.w3.org/2000/svg">
<circle cx="61" cy="73.1992" r="61" fill="#27AE60"/>
<path d="M41.2524 99C41.2524 95.828 41.6401 92.6208 42.4154 89.3783C43.2613 86.0653 44.9178 82.8933 47.3849 79.8623C49.9225 76.7608 53.7289 73.906 58.8041 71.2979C60.8483 70.2405 62.9629 69.2184 65.1481 68.2316C67.3333 67.1743 69.3774 66.0464 71.2806 64.8481C73.1838 63.5793 74.7346 62.1696 75.9329 60.6188C77.1312 58.9976 77.7304 57.0944 77.7304 54.9092C77.7304 53.147 77.2017 51.4552 76.1444 49.834C75.087 48.1423 73.5363 46.7677 71.4921 45.7104C69.4479 44.5826 66.8751 44.0187 63.7736 44.0187C60.813 44.0187 58.1697 44.5473 55.8436 45.6047C53.5879 46.662 51.6847 47.8956 50.134 49.3053C48.6537 50.6446 47.5259 51.7372 46.7505 52.5831L42.204 47.6136C42.6269 47.1907 43.4375 46.4505 44.6358 45.3932C45.8341 44.2654 47.3849 43.1023 49.2881 41.904C51.2618 40.7057 53.5527 39.6836 56.1608 38.8377C58.7689 37.9919 61.6941 37.5689 64.9366 37.5689C69.2365 37.5689 72.9019 38.3443 75.9329 39.8951C79.0344 41.4458 81.3958 43.49 83.017 46.0276C84.6383 48.4947 85.4489 51.2085 85.4489 54.1691C85.4489 57.0591 84.8145 59.5615 83.5457 61.6761C82.3474 63.7203 80.7614 65.5178 78.7877 67.0685C76.8845 68.5488 74.8756 69.8528 72.7609 70.9807C70.7167 72.038 68.8488 72.9544 67.157 73.7297C62.7162 75.8444 59.227 77.9591 56.6894 80.0737C54.1518 82.1179 52.2839 84.1621 51.0856 86.2063C49.9577 88.2504 49.1824 90.3299 48.7594 92.4445H86.612V99H41.2524Z" fill="white"/>
</svg>
