<svg width="105" height="116" viewBox="0 0 105 116" fill="none" xmlns="http://www.w3.org/2000/svg">
<circle cx="52.5" cy="63" r="52.5" fill="#27AE60"/>
<path d="M62.713 64.524C66.717 65.1913 69.902 67.0113 72.268 69.984C74.6947 72.9567 75.908 76.627 75.908 80.995C75.908 84.635 75.0283 87.82 73.269 90.55C71.5097 93.3407 69.0527 95.4943 65.898 97.011C62.7433 98.5883 59.073 99.377 54.887 99.377C50.337 99.377 46.3027 98.4367 42.784 96.556C39.326 94.736 36.7173 92.188 34.958 88.912L39.235 84.999C40.509 87.6683 42.4503 89.7917 45.059 91.369C47.7283 92.9463 51.0043 93.735 54.887 93.735C59.3763 93.735 62.9253 92.6127 65.534 90.368C68.2033 88.184 69.538 85.0293 69.538 80.904C69.538 76.7787 68.1427 73.5027 65.352 71.076C62.622 68.5887 58.709 67.345 53.613 67.345H51.338V62.067H53.795C58.4663 62.067 62.0457 61.0053 64.533 58.882C67.0203 56.698 68.264 53.877 68.264 50.419C68.264 46.779 66.99 44.0187 64.442 42.138C61.9547 40.1967 58.8303 39.226 55.069 39.226C51.611 39.226 48.5473 40.0147 45.878 41.592C43.2693 43.1087 41.2977 45.232 39.963 47.962L35.959 44.14C37.4757 40.9853 40.0237 38.4373 43.603 36.496C47.1823 34.5547 51.1863 33.584 55.615 33.584C59.3763 33.584 62.6827 34.2817 65.534 35.677C68.3853 37.0117 70.63 38.9227 72.268 41.41C73.906 43.8367 74.725 46.6577 74.725 49.873C74.725 53.513 73.633 56.7283 71.449 59.519C69.3257 62.3097 66.4137 63.978 62.713 64.524Z" fill="white"/>
</svg>
