<svg width="105" height="116" viewBox="0 0 105 116" fill="none" xmlns="http://www.w3.org/2000/svg">
<circle cx="52.5" cy="63" r="52.5" fill="#27AE60"/>
<path d="M55.342 99.559C50.792 99.559 46.6667 98.4063 42.966 96.101C39.2653 93.8563 36.505 90.8837 34.685 87.183L38.78 84.089C40.4787 87.0617 42.784 89.458 45.696 91.278C48.6687 93.098 51.9143 94.008 55.433 94.008C58.4663 94.008 61.166 93.3407 63.532 92.006C65.9587 90.6713 67.8697 88.821 69.265 86.455C70.721 84.089 71.449 81.359 71.449 78.265C71.449 75.2923 70.7513 72.6837 69.356 70.439C68.0213 68.1337 66.171 66.344 63.805 65.07C61.4997 63.796 58.891 63.159 55.979 63.159C53.1883 63.159 50.519 63.796 47.971 65.07C45.423 66.2833 43.3603 68.073 41.783 70.439H36.05L43.239 34.039H74.452V39.772H47.88L43.421 62.977C44.9983 61.2783 46.9397 59.974 49.245 59.064C51.5503 58.0933 54.0377 57.608 56.707 57.608C60.6503 57.608 64.1993 58.4877 67.354 60.247C70.5693 62.0063 73.1173 64.433 74.998 67.527C76.8787 70.621 77.819 74.17 77.819 78.174C77.819 82.4813 76.7877 86.2123 74.725 89.367C72.723 92.5823 70.0233 95.0697 66.626 96.829C63.2287 98.649 59.4673 99.559 55.342 99.559Z" fill="white"/>
</svg>
