<svg width="1069" height="715" viewBox="0 0 1069 715" fill="none" xmlns="http://www.w3.org/2000/svg">
<rect x="2.5" y="1.5" width="1064" height="711" rx="8.5" stroke="#08546A" stroke-width="3"/>
<path d="M2 111L1066 112.496" stroke="#08546A" stroke-width="3"/>
<path d="M1 46.5H1066" stroke="#08546A" stroke-width="3"/>
<path d="M4 245L1066 246.493" stroke="#08546A" stroke-width="3"/>
<path d="M1 178H1066" stroke="#08546A" stroke-width="3"/>
<path d="M1 377L1068 378.5" stroke="#08546A" stroke-width="3"/>
<path d="M4 311H1066" stroke="#08546A" stroke-width="3"/>
<path d="M4 444H1066" stroke="#08546A" stroke-width="3"/>
<path d="M1 511H1068" stroke="#08546A" stroke-width="3"/>
<path d="M1 578H1066" stroke="#08546A" stroke-width="3"/>
<path d="M1 645H1066" stroke="#08546A" stroke-width="3"/>
<path d="M375 47L375.99 712" stroke="#08546A" stroke-width="3" stroke-dasharray="4 4"/>
<path d="M500.5 47L498.069 712" stroke="#08546A" stroke-width="3" stroke-dasharray="4 4"/>
<path d="M252.5 47L251.011 714" stroke="#08546A" stroke-width="3" stroke-dasharray="4 4"/>
<path d="M858.5 47L856 712" stroke="#08546A" stroke-width="3" stroke-dasharray="4 4"/>
<path d="M733.5 47L731.069 712" stroke="#08546A" stroke-width="3" stroke-dasharray="4 4"/>
</svg>
