<svg width="551" height="372" viewBox="0 0 551 372" fill="none" xmlns="http://www.w3.org/2000/svg">
<path d="M261.752 18.6L270.917 6.2L271.721 6.7944L275.5 1.68237L279.279 6.79433L280.083 6.19993L289.248 18.5999L288.444 19.1943L297.609 31.5943L298.414 30.9999L307.579 43.3999L306.775 43.9943L315.94 56.3943L316.744 55.7999L325.91 68.2L325.106 68.7944L334.271 81.1944L335.075 80.6L344.241 93L343.437 93.5944L352.602 105.994L353.406 105.4L362.572 117.8L361.767 118.394L370.933 130.794L371.737 130.2L380.903 142.6L380.098 143.194L389.264 155.594L390.068 155L399.233 167.4L398.429 167.994L407.595 180.394L408.399 179.8L417.564 192.2L416.76 192.794L425.926 205.194L426.73 204.6L435.895 217L435.091 217.594L444.256 229.994L445.061 229.4L454.226 241.8L453.422 242.394L462.587 254.794L463.391 254.2L472.557 266.6L471.753 267.194L480.918 279.594L481.722 279L490.888 291.4L490.084 291.994L499.249 304.394L500.053 303.8L509.219 316.2L508.414 316.794L517.58 329.194L518.384 328.6L527.549 341L526.745 341.594L535.911 353.994L536.715 353.4L545.88 365.8L545.076 366.394L548.48 371H542.825V372H527.549V371H512.274V372H496.998V371H481.722V372H466.447V371H451.171V372H435.895V371H420.619V372H405.344V371H390.068V372H374.792V371H359.516V372H344.241V371H328.965V372H313.689V371H298.414V372H283.138V371H267.862V372H252.586V371H237.311V372H222.035V371H206.759V372H191.484V371H176.208V372H160.932V371H145.656V372H130.381V371H115.105V372H99.8291V371H84.5534V372H69.2777V371H54.002V372H38.7262V371H23.4505V372H8.17479V371H2.51959L5.92376 366.394L5.11959 365.8L14.285 353.4L15.0892 353.994L24.2546 341.594L23.4505 341L32.6159 328.6L33.4201 329.194L42.5855 316.794L41.7813 316.2L50.9468 303.8L51.751 304.394L60.9164 291.994L60.1122 291.4L69.2777 279L70.0818 279.594L79.2473 267.194L78.4431 266.6L87.6086 254.2L88.4127 254.794L97.5782 242.394L96.774 241.8L105.939 229.4L106.744 229.994L115.909 217.594L115.105 217L124.27 204.6L125.074 205.194L134.24 192.794L133.436 192.2L142.601 179.8L143.405 180.394L152.571 167.994L151.767 167.4L160.932 155L161.736 155.594L170.902 143.194L170.097 142.6L179.263 130.2L180.067 130.794L189.233 118.394L188.428 117.8L197.594 105.4L198.398 105.994L207.563 93.5944L206.759 93L215.925 80.6L216.729 81.1944L225.894 68.7944L225.09 68.2L234.256 55.8L235.06 56.3944L244.225 43.9944L243.421 43.4L252.586 31L253.391 31.5944L262.556 19.1944L261.752 18.6Z" fill="#D3EBF2" stroke="#D3EBF2" stroke-width="2" stroke-dasharray="15 15"/>
</svg>
